<?xml version="1.0" encoding="utf-8"?>
<!-- Generator: Adobe Illustrator 27.5.0, SVG Export Plug-In . SVG Version: 6.00 Build 0)  -->
<svg version="1.1" xmlns="http://www.w3.org/2000/svg" xmlns:xlink="http://www.w3.org/1999/xlink" x="0px" y="0px"
	 viewBox="0 0 500 500" style="enable-background:new 0 0 500 500;" xml:space="preserve">
<g id="Floor">
	<path id="XMLID_28538_" style="fill:#F5F5F5;" d="M96.533,390.783c84.977,44.392,222.752,44.394,307.727,0.001
		c84.977-44.394,84.977-116.368,0-160.76c-84.977-44.393-222.752-44.393-307.728-0.001
		C11.555,274.415,11.555,346.391,96.533,390.783z"/>
</g>
<g id="Plants">
	<g>
		<path id="XMLID_28833_" style="fill:#27DEBF;" d="M64.806,316.321c0,0,3.517-9.673,4.301-20.221
			c0.785-10.548-4.324-26.696-13.69-32.103c-9.366-5.407-14.425,1.277-11.286,7.036c3.138,5.759,13.73,21.954,13.861,35.956
			L64.806,316.321z"/>
		<path id="XMLID_28544_" style="fill:#FFFFFF;" d="M61.545,316.091c-0.027,0-0.055-0.002-0.082-0.007
			c-0.272-0.045-0.457-0.302-0.412-0.574l0.021-0.13c0.786-4.758,1.862-11.274,0.448-23.183
			c-1.591-13.399-5.967-19.599-10.037-23.897c-0.189-0.2-0.181-0.517,0.02-0.707c0.201-0.189,0.517-0.18,0.707,0.02
			c4.183,4.416,8.679,10.777,10.303,24.467c1.432,12.049,0.342,18.646-0.454,23.463l-0.021,0.129
			C61.997,315.917,61.785,316.091,61.545,316.091z"/>
		<path id="XMLID_28828_" style="fill:#27DEBF;" d="M59.48,322.318c-0.972-4.943-4.661-10.495-11.687-13.762
			c-7.026-3.267-14.253-5.173-15.561-9.381c-1.308-4.208,3.138-9.079,12.292-7.036c9.153,2.044,18.961,15.643,18.438,24.797
			L59.48,322.318z"/>
		<path id="XMLID_28543_" style="fill:#FFFFFF;" d="M61.543,319.628c-0.243,0-0.456-0.178-0.493-0.425
			c-1.874-12.4-12.393-21.865-20.661-22.605c-0.274-0.024-0.478-0.268-0.453-0.543c0.025-0.276,0.271-0.473,0.543-0.453
			c8.638,0.773,19.617,10.596,21.56,23.451c0.042,0.273-0.146,0.528-0.419,0.569C61.594,319.626,61.568,319.628,61.543,319.628z"/>
	</g>
	<g>
		<path id="XMLID_28822_" style="fill:#27DEBF;" d="M402.211,227.335c0,0-4.665-10.316-3.901-19.163
			c0.782-9.047,4.012-17.517,11.677-23.468c7.664-5.951,13.626-3.253,14.89-1.076c1.264,2.177,1.292,6.47-4.418,11.14
			c-5.71,4.671-11.949,17.421-10.184,30.158l-2.622,7.45L402.211,227.335z"/>
		<path id="XMLID_28542_" style="fill:#FFFFFF;" d="M405.029,228.318c-0.177,0-0.349-0.095-0.44-0.261
			c-1.946-3.585-2.242-18.452,0.896-26.769c3.818-10.118,10.703-15.837,15.873-17.815c0.255-0.098,0.547,0.03,0.645,0.288
			c0.099,0.258-0.03,0.547-0.288,0.645c-4.968,1.901-11.594,7.427-15.295,17.235c-2.996,7.941-2.775,22.582-0.952,25.938
			c0.132,0.243,0.042,0.546-0.201,0.678C405.192,228.298,405.11,228.318,405.029,228.318z"/>
		<path id="XMLID_28817_" style="fill:#27DEBF;" d="M424.276,248.859c0.782-5.142,0.907-8.3,5.698-11.447
			c4.791-3.147,9.053-5.377,9.396-9.87c0.342-4.493-2.619-9.556-2.467-13.474c0.152-3.918,2.554-5.757,7.615-9.204
			c5.06-3.447,10.247-9.324,5.276-13.518c-4.971-4.194-12.382-0.297-15.759,2.628c-3.377,2.925-6.118,4.006-11.296,2.628
			c-5.178-1.378-10.245,2.208-9.013,8.815c1.232,6.607,0.594,9.613-3.573,9.381c-4.167-0.232-10.283,4.097-5.386,14.071
			L424.276,248.859z"/>
		<path id="XMLID_28541_" style="fill:#FFFFFF;" d="M413.727,238.548c-0.021,0-0.04-0.001-0.061-0.003
			c-0.273-0.033-0.47-0.281-0.436-0.556c2.375-19.952,22.173-41.371,31.176-44.487c0.255-0.089,0.545,0.048,0.636,0.309
			c0.09,0.261-0.048,0.546-0.31,0.636c-8.805,3.047-28.176,24.061-30.51,43.66C414.191,238.362,413.976,238.548,413.727,238.548z"/>
		<path id="XMLID_28540_" style="fill:#FFFFFF;" d="M422.297,216.512c-0.214,0-0.412-0.139-0.478-0.354
			c-2.109-6.91-2.842-13.66-2.849-13.727c-0.029-0.274,0.17-0.521,0.444-0.55c0.272-0.029,0.52,0.169,0.55,0.444
			c0.007,0.066,0.73,6.725,2.811,13.541c0.08,0.264-0.068,0.543-0.332,0.624C422.395,216.505,422.345,216.512,422.297,216.512z"/>
		<path id="XMLID_28539_" style="fill:#FFFFFF;" d="M416.708,227.308c-0.191,0-0.375-0.111-0.458-0.298
			c-0.111-0.253,0.004-0.548,0.257-0.659c8.982-3.959,17.341-1.16,17.692-1.039c0.261,0.09,0.399,0.374,0.31,0.635
			c-0.09,0.261-0.373,0.402-0.635,0.31c-0.084-0.027-8.349-2.788-16.965,1.009C416.844,227.294,416.775,227.308,416.708,227.308z"/>
	</g>
</g>
<g id="Boxes">
	<g>
		<polygon id="XMLID_29161_" style="fill:#F5F5F5;" points="282.892,127.974 258.52,113.903 234.157,127.974 258.52,142.045 		"/>
		<polygon id="XMLID_29159_" style="fill:#EBEBEB;" points="258.52,170.187 282.892,156.117 282.892,127.974 258.52,142.044 		"/>
		<g id="XMLID_28506_">
			<path id="XMLID_28611_" style="fill:#FFFFFF;" d="M263.216,160.852c-0.131,0-0.254-0.032-0.366-0.097
				c-0.29-0.167-0.457-0.536-0.457-1.011v-2.981c0-0.002,0-0.004,0-0.006v-0.221l0.152,0.027l2.338-1.373v3.332
				c0,0.848-0.506,1.804-1.151,2.176C263.556,160.801,263.38,160.852,263.216,160.852z M262.768,156.983v2.761
				c0,0.337,0.099,0.587,0.27,0.686c0.171,0.099,0.369,0.023,0.507-0.056c0.522-0.302,0.964-1.15,0.964-1.852v-0.244h-0.866
				l-0.17-1.169L262.768,156.983z M263.966,157.903h0.542v-2.058l-1.395,0.819l0.69,0.124L263.966,157.903z"/>
		</g>
		<g id="XMLID_28505_">
			<path id="XMLID_28610_" style="fill:#FFFFFF;" d="M263.638,163.229c-0.104,0-0.188-0.084-0.188-0.188v-2.505
				c0-0.104,0.084-0.188,0.188-0.188c0.103,0,0.188,0.084,0.188,0.188v2.505C263.825,163.145,263.741,163.229,263.638,163.229z"/>
		</g>
		<g id="XMLID_28504_">
			<path id="XMLID_28609_" style="fill:#FFFFFF;" d="M262.549,163.857c-0.064,0-0.128-0.034-0.162-0.094
				c-0.052-0.09-0.021-0.205,0.068-0.256l2.177-1.257c0.087-0.05,0.204-0.021,0.256,0.069c0.052,0.09,0.021,0.205-0.068,0.256
				l-2.177,1.257C262.613,163.849,262.581,163.857,262.549,163.857z"/>
		</g>
		<g id="XMLID_28502_">
			<path id="XMLID_28608_" style="fill:#FFFFFF;" d="M270.306,159.543c-0.073,0-0.143-0.018-0.204-0.053
				c-0.143-0.082-0.225-0.246-0.225-0.451v-0.514c0-0.104,0.084-0.188,0.188-0.188c0.104,0,0.188,0.084,0.188,0.188v0.514
				c0,0.077,0.021,0.117,0.035,0.125s0.059,0.005,0.124-0.032c0.164-0.097,0.348-0.469,0.348-0.847v-3.331
				c0-0.104,0.084-0.188,0.188-0.188s0.188,0.084,0.188,0.188v3.331c0,0.488-0.229,0.992-0.533,1.17
				C270.502,159.514,270.4,159.543,270.306,159.543z"/>
		</g>
		<g id="XMLID_28501_">
			<path id="XMLID_28605_" style="fill:#FFFFFF;" d="M268.331,156.631v-0.325c0-1.527,1.076-3.39,2.398-4.154
				c0.677-0.39,1.323-0.447,1.817-0.161c0.495,0.286,0.769,0.874,0.769,1.654v0.108L268.331,156.631z M271.852,152.186
				c-0.282,0-0.601,0.098-0.935,0.29c-1.124,0.649-2.055,2.159-2.193,3.494l4.215-2.433c-0.021-0.586-0.226-1.019-0.579-1.223
				C272.21,152.229,272.038,152.186,271.852,152.186z"/>
		</g>
		<g id="XMLID_28497_">
			<g id="XMLID_28499_">
				<path id="XMLID_28604_" style="fill:#FFFFFF;" d="M277.039,155.705c-0.104,0-0.188-0.084-0.188-0.188v-6.38
					c0-0.104,0.084-0.188,0.188-0.188c0.103,0,0.188,0.084,0.188,0.188v6.38C277.227,155.621,277.143,155.705,277.039,155.705z"/>
			</g>
			<g id="XMLID_28498_">
				<path id="XMLID_28603_" style="fill:#FFFFFF;" d="M276.49,150.592c-0.025,0-0.05-0.005-0.074-0.016
					c-0.096-0.041-0.139-0.151-0.098-0.247l0.667-1.54l0.744,0.859c0.068,0.078,0.06,0.196-0.019,0.264
					c-0.081,0.067-0.197,0.06-0.265-0.019l-0.353-0.408l-0.431,0.994C276.632,150.55,276.563,150.592,276.49,150.592z"/>
			</g>
		</g>
		<g id="XMLID_28494_">
			<g id="XMLID_28496_">
				<path id="XMLID_28602_" style="fill:#FFFFFF;" d="M278.773,154.716c-0.103,0-0.188-0.084-0.188-0.188v-6.38
					c0-0.104,0.084-0.188,0.188-0.188c0.104,0,0.188,0.084,0.188,0.188v6.38C278.961,154.632,278.877,154.716,278.773,154.716z"/>
			</g>
			<g id="XMLID_28495_">
				<path id="XMLID_28601_" style="fill:#FFFFFF;" d="M278.225,149.604c-0.025,0-0.05-0.005-0.074-0.016
					c-0.096-0.041-0.139-0.151-0.098-0.247l0.667-1.541l0.744,0.859c0.068,0.078,0.059,0.196-0.019,0.264
					c-0.08,0.067-0.197,0.06-0.265-0.019l-0.354-0.408l-0.431,0.994C278.366,149.561,278.297,149.604,278.225,149.604z"/>
			</g>
		</g>
		<polygon id="XMLID_29129_" style="fill:#E0E0E0;" points="258.52,170.187 234.147,156.117 234.157,127.974 258.52,142.045 		"/>
		<polygon id="XMLID_28275_" style="fill:#FFFFFF;" points="247.656,135.772 272.015,121.693 269.259,120.102 244.901,134.18 		"/>
		<path id="XMLID_29122_" style="fill:#27DEBF;" d="M237.854,144.108l8.722,5.036c0.957,0.552,1.732,1.895,1.732,3l0,5.381
			c0,1.105-0.775,1.552-1.732,1l-8.722-5.036c-0.957-0.552-1.732-1.895-1.732-3l0-5.381
			C236.122,144.004,236.897,143.556,237.854,144.108z"/>
		<g id="XMLID_28487_">
			<polygon id="XMLID_29120_" style="fill:#27DEBF;" points="237.178,145.454 237.509,145.645 237.509,151.621 237.178,151.43 			
				"/>
		</g>
		<g id="XMLID_28486_">
			<polygon id="XMLID_29118_" style="fill:#27DEBF;" points="238.527,146.232 239.098,146.568 239.098,152.544 238.527,152.208 			
				"/>
		</g>
		<g id="XMLID_28485_">
			<polygon id="XMLID_29116_" style="fill:#27DEBF;" points="239.876,147.01 240.207,147.202 240.207,153.178 239.876,152.987 			
				"/>
		</g>
		<g id="XMLID_28484_">
			<polygon id="XMLID_29114_" style="fill:#27DEBF;" points="240.893,147.587 241.556,147.98 241.556,153.957 240.893,153.564 			
				"/>
		</g>
		<g id="XMLID_28483_">
			<polygon id="XMLID_29112_" style="fill:#27DEBF;" points="242.574,148.568 242.906,148.759 242.905,154.735 242.574,154.544 			
				"/>
		</g>
		<g id="XMLID_28482_">
			<polygon id="XMLID_29110_" style="fill:#27DEBF;" points="243.546,149.116 244.255,149.538 244.254,155.514 243.545,155.092 			
				"/>
		</g>
		<g id="XMLID_28481_">
			<polygon id="XMLID_29108_" style="fill:#27DEBF;" points="245.272,150.125 245.604,150.316 245.603,156.292 245.272,156.101 			
				"/>
		</g>
		<g id="XMLID_28480_">
			<polygon id="XMLID_29106_" style="fill:#27DEBF;" points="246.042,150.563 246.208,150.658 246.207,156.635 246.042,156.539 			
				"/>
		</g>
		<g id="XMLID_28479_">
			<polygon id="XMLID_29104_" style="fill:#27DEBF;" points="244.657,149.799 244.823,149.895 244.823,155.871 244.657,155.775 			
				"/>
		</g>
		<g id="XMLID_28478_">
			<polygon id="XMLID_29102_" style="fill:#27DEBF;" points="241.94,148.207 242.105,148.303 242.105,154.279 241.94,154.184 			"/>
		</g>
		<g id="XMLID_28477_">
			<polygon id="XMLID_29100_" style="fill:#27DEBF;" points="240.451,147.353 240.617,147.449 240.617,153.425 240.451,153.33 			
				"/>
		</g>
		<g id="XMLID_28476_">
			<polygon id="XMLID_29098_" style="fill:#27DEBF;" points="239.382,146.763 239.548,146.859 239.548,152.835 239.382,152.739 			
				"/>
		</g>
		<g id="XMLID_28475_">
			<polygon id="XMLID_29096_" style="fill:#27DEBF;" points="237.933,145.883 238.099,145.979 238.098,151.955 237.933,151.859 			
				"/>
		</g>
		<g id="XMLID_28474_">
			<polygon id="XMLID_29094_" style="fill:#27DEBF;" points="246.621,150.903 246.953,151.094 246.953,157.071 246.621,156.88 			
				"/>
		</g>
		<polygon id="XMLID_29089_" style="fill:#F5F5F5;" points="250.395,123.283 221.961,106.866 193.526,123.283 221.96,139.7 		"/>
		<polygon id="XMLID_28274_" style="fill:#FFFFFF;" points="209.774,132.662 238.209,116.246 235.451,114.655 207.019,131.071 		"/>
		<polygon id="XMLID_29087_" style="fill:#EBEBEB;" points="221.961,191.294 250.395,174.878 250.395,123.283 221.961,139.699 		"/>
		<path id="XMLID_28597_" style="fill:#FFFFFF;" d="M226.656,181.959c-0.131,0-0.254-0.032-0.366-0.097
			c-0.29-0.167-0.457-0.536-0.457-1.011v-2.981c0-0.002,0-0.004,0-0.006v-0.221l0.152,0.027l2.338-1.373v3.333
			c0,0.848-0.506,1.804-1.151,2.176C226.996,181.908,226.82,181.959,226.656,181.959z M226.208,178.091v2.761
			c0,0.337,0.099,0.587,0.27,0.687c0.169,0.098,0.369,0.023,0.507-0.056c0.522-0.302,0.964-1.15,0.964-1.852v-0.244h-0.865
			l-0.171-1.17L226.208,178.091z M227.407,179.011h0.541v-2.058l-1.395,0.819l0.69,0.124L227.407,179.011z"/>
		<path id="XMLID_28596_" style="fill:#FFFFFF;" d="M227.078,184.336c-0.104,0-0.188-0.084-0.188-0.188v-2.505
			c0-0.104,0.084-0.188,0.188-0.188s0.188,0.084,0.188,0.188v2.505C227.266,184.252,227.182,184.336,227.078,184.336z"/>
		<path id="XMLID_28595_" style="fill:#FFFFFF;" d="M225.99,184.965c-0.064,0-0.128-0.034-0.162-0.094
			c-0.052-0.09-0.021-0.205,0.068-0.256l2.177-1.257c0.088-0.05,0.204-0.021,0.256,0.069c0.052,0.09,0.021,0.205-0.068,0.256
			l-2.177,1.257C226.055,184.956,226.022,184.965,225.99,184.965z"/>
		<path id="XMLID_28594_" style="fill:#FFFFFF;" d="M233.747,180.651c-0.073,0-0.143-0.018-0.204-0.053
			c-0.143-0.082-0.225-0.246-0.225-0.451v-0.514c0-0.104,0.084-0.188,0.188-0.188c0.104,0,0.188,0.084,0.188,0.188v0.514
			c0,0.077,0.021,0.117,0.035,0.126c0.019,0.008,0.059,0.006,0.123-0.032c0.165-0.097,0.349-0.47,0.349-0.848v-3.331
			c0-0.104,0.084-0.188,0.188-0.188s0.188,0.084,0.188,0.188v3.331c0,0.488-0.23,0.991-0.533,1.171
			C233.942,180.622,233.842,180.651,233.747,180.651z"/>
		<path id="XMLID_28591_" style="fill:#FFFFFF;" d="M231.772,177.738v-0.325c0-1.527,1.076-3.391,2.398-4.154
			c0.677-0.39,1.321-0.447,1.816-0.161c0.495,0.286,0.769,0.873,0.769,1.654v0.108L231.772,177.738z M235.293,173.294
			c-0.282,0-0.601,0.098-0.935,0.291c-1.124,0.648-2.055,2.159-2.193,3.494l4.214-2.433c-0.021-0.587-0.226-1.018-0.579-1.223
			C235.65,173.336,235.479,173.294,235.293,173.294z"/>
		<path id="XMLID_28590_" style="fill:#FFFFFF;" d="M240.48,176.812c-0.104,0-0.187-0.084-0.187-0.188v-6.38
			c0-0.104,0.084-0.188,0.187-0.188c0.104,0,0.188,0.084,0.188,0.188v6.38C240.668,176.728,240.584,176.812,240.48,176.812z"/>
		<path id="XMLID_28589_" style="fill:#FFFFFF;" d="M239.932,171.699c-0.025,0-0.05-0.005-0.074-0.016
			c-0.096-0.041-0.139-0.151-0.098-0.247l0.667-1.54l0.744,0.859c0.068,0.078,0.06,0.196-0.019,0.264
			c-0.08,0.067-0.197,0.059-0.265-0.019l-0.354-0.408l-0.431,0.994C240.073,171.658,240.004,171.699,239.932,171.699z"/>
		<path id="XMLID_28588_" style="fill:#FFFFFF;" d="M242.214,175.824c-0.104,0-0.188-0.084-0.188-0.188v-6.38
			c0-0.104,0.084-0.188,0.188-0.188c0.103,0,0.188,0.084,0.188,0.188v6.38C242.401,175.74,242.317,175.824,242.214,175.824z"/>
		<path id="XMLID_28587_" style="fill:#FFFFFF;" d="M241.666,170.711c-0.025,0-0.05-0.005-0.074-0.016
			c-0.096-0.041-0.139-0.151-0.098-0.247l0.667-1.541l0.744,0.859c0.068,0.078,0.059,0.196-0.019,0.264
			c-0.08,0.067-0.196,0.059-0.265-0.019l-0.354-0.408l-0.431,0.994C241.808,170.669,241.738,170.711,241.666,170.711z"/>
		<polygon id="XMLID_29057_" style="fill:#E0E0E0;" points="221.961,191.295 193.527,174.878 193.526,123.283 221.96,139.7 		"/>
		<path id="XMLID_29050_" style="fill:#F5F5F5;" d="M199.312,164.149l8.721,5.036c0.957,0.552,1.732,1.895,1.732,3l0,5.381
			c0,1.105-0.775,1.552-1.732,1l-8.723-5.036c-0.957-0.552-1.732-1.895-1.732-3l0-5.381
			C197.58,164.044,198.355,163.596,199.312,164.149z"/>
		<polygon id="XMLID_29048_" style="fill:#E0E0E0;" points="198.636,165.494 198.967,165.685 198.967,171.662 198.636,171.47 		"/>
		<polygon id="XMLID_29046_" style="fill:#E0E0E0;" points="199.985,166.272 200.556,166.608 200.556,172.585 199.985,172.249 		"/>
		<polygon id="XMLID_29044_" style="fill:#E0E0E0;" points="201.334,167.051 201.666,167.242 201.665,173.219 201.334,173.027 		"/>
		<polygon id="XMLID_29042_" style="fill:#E0E0E0;" points="202.351,167.627 203.015,168.021 203.014,173.997 202.351,173.604 		"/>
		<polygon id="XMLID_29040_" style="fill:#E0E0E0;" points="204.032,168.608 204.364,168.799 204.364,174.776 204.032,174.584 		"/>
		<polygon id="XMLID_29038_" style="fill:#E0E0E0;" points="205.004,169.156 205.713,169.578 205.713,175.554 205.004,175.133 		"/>
		<polygon id="XMLID_29036_" style="fill:#E0E0E0;" points="206.73,170.165 207.062,170.356 207.062,176.333 206.73,176.141 		"/>
		<polygon id="XMLID_29034_" style="fill:#E0E0E0;" points="207.5,170.603 207.666,170.699 207.666,176.675 207.5,176.579 		"/>
		<polygon id="XMLID_29032_" style="fill:#E0E0E0;" points="206.115,169.839 206.281,169.935 206.281,175.911 206.115,175.816 		"/>
		<polygon id="XMLID_29030_" style="fill:#E0E0E0;" points="203.398,168.248 203.564,168.343 203.563,174.32 203.398,174.224 		"/>
		<polygon id="XMLID_29028_" style="fill:#E0E0E0;" points="201.91,167.393 202.075,167.489 202.075,173.466 201.91,173.37 		"/>
		<polygon id="XMLID_29026_" style="fill:#E0E0E0;" points="200.841,166.803 201.006,166.899 201.006,172.875 200.841,172.78 		"/>
		<polygon id="XMLID_29024_" style="fill:#E0E0E0;" points="199.391,165.923 199.557,166.019 199.557,171.995 199.391,171.9 		"/>
		<polygon id="XMLID_29022_" style="fill:#E0E0E0;" points="208.08,170.943 208.411,171.135 208.411,177.111 208.079,176.92 		"/>
		<g id="XMLID_28455_">
			<polygon id="XMLID_29055_" style="fill:#F0F0F0;" points="207.019,137.729 209.774,139.32 209.774,132.662 207.019,131.071 			
				"/>
		</g>
	</g>
	<g>
		<g id="XMLID_28451_">
			<polygon id="XMLID_29017_" style="fill:#F5F5F5;" points="165.093,177.223 144.782,165.497 116.348,181.914 136.659,193.64 			
				"/>
		</g>
		<g id="XMLID_28450_">
			<polygon id="XMLID_29015_" style="fill:#EBEBEB;" points="136.659,240.544 165.093,224.127 165.093,177.223 136.659,193.64 			
				"/>
		</g>
		<g id="XMLID_28446_">
			<g id="XMLID_28449_">
				<path id="XMLID_28583_" style="fill:#FFFFFF;" d="M141.353,231.208c-0.13,0-0.253-0.032-0.365-0.097
					c-0.29-0.167-0.457-0.536-0.457-1.011v-2.981c0-0.002,0-0.004,0-0.006v-0.221l0.152,0.027l2.338-1.373v3.332
					c0,0.848-0.506,1.804-1.151,2.176C141.693,231.157,141.519,231.208,141.353,231.208z M140.906,227.34v2.761
					c0,0.337,0.099,0.587,0.27,0.686c0.168,0.097,0.368,0.023,0.507-0.056c0.523-0.302,0.964-1.149,0.964-1.852v-0.244h-0.865
					l-0.171-1.17L140.906,227.34z M142.105,228.26h0.541v-2.058l-1.395,0.818l0.691,0.124L142.105,228.26z"/>
			</g>
			<g id="XMLID_28448_">
				<path id="XMLID_28582_" style="fill:#FFFFFF;" d="M141.776,233.586c-0.104,0-0.188-0.084-0.188-0.188v-2.505
					c0-0.104,0.084-0.188,0.188-0.188c0.104,0,0.188,0.084,0.188,0.188v2.505C141.964,233.502,141.88,233.586,141.776,233.586z"/>
			</g>
			<g id="XMLID_28447_">
				<path id="XMLID_28581_" style="fill:#FFFFFF;" d="M140.688,234.214c-0.064,0-0.128-0.034-0.162-0.094
					c-0.052-0.09-0.021-0.205,0.068-0.256l2.178-1.257c0.087-0.05,0.204-0.021,0.256,0.069c0.052,0.09,0.021,0.205-0.068,0.256
					l-2.178,1.257C140.752,234.206,140.72,234.214,140.688,234.214z"/>
			</g>
		</g>
		<g id="XMLID_28443_">
			<g id="XMLID_28445_">
				<path id="XMLID_28580_" style="fill:#FFFFFF;" d="M148.445,229.9c-0.073,0-0.143-0.018-0.204-0.053
					c-0.143-0.081-0.225-0.246-0.225-0.45v-0.514c0-0.104,0.084-0.188,0.188-0.188s0.188,0.084,0.188,0.188v0.514
					c0,0.077,0.021,0.117,0.035,0.125c0.015,0.007,0.06,0.006,0.123-0.032c0.165-0.097,0.349-0.469,0.349-0.848v-3.331
					c0-0.104,0.084-0.188,0.188-0.188s0.188,0.084,0.188,0.188v3.331c0,0.488-0.229,0.992-0.534,1.171
					C148.641,229.871,148.54,229.9,148.445,229.9z"/>
			</g>
			<g id="XMLID_28444_">
				<path id="XMLID_28577_" style="fill:#FFFFFF;" d="M146.471,226.987v-0.325c0-1.527,1.076-3.391,2.398-4.154
					c0.677-0.389,1.321-0.446,1.816-0.161c0.495,0.286,0.769,0.873,0.769,1.654v0.108L146.471,226.987z M149.991,222.543
					c-0.282,0-0.601,0.098-0.935,0.29c-1.124,0.648-2.055,2.159-2.193,3.494l4.214-2.433c-0.021-0.587-0.225-1.019-0.579-1.223
					C150.349,222.586,150.178,222.543,149.991,222.543z"/>
			</g>
		</g>
		<g id="XMLID_28436_">
			<g id="XMLID_28440_">
				<g id="XMLID_28442_">
					<path id="XMLID_28576_" style="fill:#FFFFFF;" d="M155.179,226.062c-0.104,0-0.188-0.084-0.188-0.188v-6.38
						c0-0.104,0.084-0.188,0.188-0.188s0.188,0.084,0.188,0.188v6.38C155.366,225.978,155.282,226.062,155.179,226.062z"/>
				</g>
				<g id="XMLID_28441_">
					<path id="XMLID_28575_" style="fill:#FFFFFF;" d="M154.63,220.949c-0.025,0-0.05-0.005-0.074-0.016
						c-0.096-0.041-0.139-0.151-0.098-0.247l0.667-1.541l0.744,0.859c0.068,0.078,0.06,0.196-0.019,0.264
						c-0.081,0.067-0.197,0.06-0.265-0.019l-0.354-0.408l-0.431,0.994C154.771,220.907,154.702,220.949,154.63,220.949z"/>
				</g>
			</g>
			<g id="XMLID_28437_">
				<g id="XMLID_28439_">
					<path id="XMLID_28574_" style="fill:#FFFFFF;" d="M156.912,225.073c-0.104,0-0.188-0.084-0.188-0.188v-6.38
						c0-0.104,0.084-0.188,0.188-0.188s0.188,0.084,0.188,0.188v6.38C157.1,224.989,157.016,225.073,156.912,225.073z"/>
				</g>
				<g id="XMLID_28438_">
					<path id="XMLID_28573_" style="fill:#FFFFFF;" d="M156.364,219.96c-0.025,0-0.05-0.005-0.074-0.016
						c-0.096-0.041-0.139-0.151-0.098-0.247l0.667-1.541l0.744,0.859c0.068,0.078,0.06,0.196-0.018,0.264
						c-0.08,0.067-0.197,0.06-0.265-0.019l-0.354-0.408l-0.431,0.994C156.506,219.918,156.436,219.96,156.364,219.96z"/>
				</g>
			</g>
		</g>
		<g id="XMLID_28435_">
			<polygon id="XMLID_28985_" style="fill:#E0E0E0;" points="136.659,240.544 116.349,228.818 116.348,181.914 136.659,193.64 			
				"/>
		</g>
		<g id="XMLID_28434_">
			<polygon id="XMLID_28983_" style="fill:#F5F5F5;" points="125.779,194.017 128.534,195.608 128.534,188.949 125.779,187.359 			
				"/>
		</g>
		<g id="XMLID_28433_">
			<polygon id="XMLID_28273_" style="fill:#FFFFFF;" points="128.534,188.95 156.968,172.533 154.211,170.943 125.779,187.359 			
				"/>
		</g>
		<g id="XMLID_28343_">
			<polygon id="XMLID_28977_" style="fill:#F5F5F5;" points="128.534,217.092 91.976,195.985 55.417,217.092 91.976,238.199 			"/>
		</g>
		<g id="XMLID_28342_">
			<polygon id="XMLID_28975_" style="fill:#EBEBEB;" points="91.976,266.342 128.535,245.235 128.535,217.092 91.976,238.199 			"/>
		</g>
		<g id="XMLID_28327_">
			<g id="XMLID_28326_">
				<path id="XMLID_28569_" style="fill:#FFFFFF;" d="M96.672,257.007c-0.131,0-0.254-0.032-0.366-0.097
					c-0.29-0.168-0.457-0.537-0.457-1.012v-2.982c0-0.002,0-0.004,0-0.006v-0.221l0.152,0.027l2.338-1.373v3.332
					c0,0.848-0.506,1.804-1.151,2.177C97.012,256.955,96.836,257.007,96.672,257.007z M96.224,253.137v2.761
					c0,0.337,0.099,0.588,0.27,0.687c0.17,0.098,0.369,0.022,0.507-0.056c0.522-0.303,0.964-1.15,0.964-1.853v-0.244h-0.865
					l-0.171-1.169L96.224,253.137z M97.423,254.057h0.541v-2.059l-1.395,0.819l0.691,0.123L97.423,254.057z"/>
			</g>
			<g id="XMLID_28329_">
				<path id="XMLID_28568_" style="fill:#FFFFFF;" d="M97.094,259.384c-0.104,0-0.188-0.084-0.188-0.188v-2.505
					c0-0.103,0.084-0.188,0.188-0.188c0.104,0,0.188,0.084,0.188,0.188v2.505C97.281,259.3,97.197,259.384,97.094,259.384z"/>
			</g>
			<g id="XMLID_28357_">
				<path id="XMLID_28567_" style="fill:#FFFFFF;" d="M96.005,260.012c-0.064,0-0.128-0.033-0.162-0.094
					c-0.052-0.09-0.021-0.204,0.068-0.256l2.178-1.257c0.088-0.054,0.204-0.023,0.256,0.068c0.052,0.09,0.021,0.204-0.068,0.256
					l-2.178,1.257C96.069,260.004,96.037,260.012,96.005,260.012z"/>
			</g>
		</g>
		<g id="XMLID_28339_">
			<g id="XMLID_28341_">
				<path id="XMLID_28566_" style="fill:#FFFFFF;" d="M103.763,255.698c-0.073,0-0.143-0.018-0.205-0.053
					c-0.143-0.082-0.225-0.246-0.225-0.451v-0.514c0-0.104,0.084-0.188,0.187-0.188c0.104,0,0.188,0.084,0.188,0.188v0.514
					c0,0.077,0.021,0.117,0.036,0.126c0.015,0.008,0.059,0.005,0.122-0.032c0.165-0.098,0.349-0.47,0.349-0.848v-3.331
					c0-0.104,0.084-0.188,0.188-0.188c0.104,0,0.188,0.084,0.188,0.188v3.331c0,0.488-0.229,0.991-0.532,1.17
					C103.958,255.669,103.857,255.698,103.763,255.698z"/>
			</g>
			<g id="XMLID_28340_">
				<path id="XMLID_28563_" style="fill:#FFFFFF;" d="M101.788,252.786v-0.325c0-1.527,1.075-3.391,2.397-4.154
					c0.677-0.39,1.323-0.447,1.817-0.161c0.496,0.286,0.769,0.874,0.769,1.654v0.108L101.788,252.786z M105.309,248.341
					c-0.283,0-0.602,0.098-0.936,0.291c-1.123,0.648-2.054,2.158-2.192,3.494l4.214-2.434c-0.021-0.586-0.226-1.018-0.579-1.222
					C105.666,248.384,105.495,248.341,105.309,248.341z"/>
			</g>
		</g>
		<g id="XMLID_28332_">
			<g id="XMLID_28336_">
				<g id="XMLID_28338_">
					<path id="XMLID_28562_" style="fill:#FFFFFF;" d="M110.495,251.859c-0.104,0-0.188-0.084-0.188-0.188v-6.38
						c0-0.104,0.084-0.188,0.188-0.188s0.188,0.084,0.188,0.188v6.38C110.683,251.775,110.599,251.859,110.495,251.859z"/>
				</g>
				<g id="XMLID_28337_">
					<path id="XMLID_28561_" style="fill:#FFFFFF;" d="M109.947,246.747c-0.025,0-0.05-0.005-0.074-0.016
						c-0.096-0.041-0.139-0.151-0.098-0.247l0.667-1.541l0.744,0.859c0.068,0.078,0.06,0.196-0.018,0.264
						c-0.08,0.067-0.197,0.059-0.265-0.019l-0.353-0.408l-0.431,0.994C110.089,246.704,110.019,246.747,109.947,246.747z"/>
				</g>
			</g>
			<g id="XMLID_28333_">
				<g id="XMLID_28335_">
					<path id="XMLID_28560_" style="fill:#FFFFFF;" d="M112.229,250.871c-0.103,0-0.187-0.084-0.187-0.188v-6.38
						c0-0.104,0.084-0.188,0.187-0.188c0.104,0,0.188,0.084,0.188,0.188v6.38C112.417,250.787,112.333,250.871,112.229,250.871z"/>
				</g>
				<g id="XMLID_28334_">
					<path id="XMLID_28559_" style="fill:#FFFFFF;" d="M111.681,245.758c-0.025,0-0.05-0.005-0.074-0.016
						c-0.096-0.041-0.139-0.151-0.098-0.247l0.667-1.541l0.744,0.859c0.068,0.078,0.06,0.196-0.019,0.264
						c-0.08,0.067-0.197,0.06-0.265-0.019l-0.354-0.408l-0.431,0.994C111.822,245.716,111.753,245.758,111.681,245.758z"/>
				</g>
			</g>
		</g>
		<g id="XMLID_28331_">
			<polygon id="XMLID_28945_" style="fill:#E0E0E0;" points="91.976,266.342 55.417,245.235 55.417,217.092 91.976,238.199 			"/>
		</g>
		<g id="XMLID_28330_">
			<polygon id="XMLID_28943_" style="fill:#F5F5F5;" points="72.319,233.509 75.074,235.1 75.074,228.441 72.319,226.85 			"/>
		</g>
		<g id="XMLID_28328_">
			<polygon id="XMLID_28272_" style="fill:#FFFFFF;" points="75.074,228.442 111.633,207.335 108.877,205.743 72.319,226.85 			"/>
		</g>
		<path id="XMLID_28938_" style="fill:#F5F5F5;" d="M61.212,234.508l8.721,5.036c0.957,0.552,1.732,1.895,1.732,3l0,5.381
			c0,1.105-0.775,1.552-1.732,1l-8.723-5.036c-0.957-0.552-1.732-1.895-1.732-3l0-5.381
			C59.48,234.404,60.255,233.956,61.212,234.508z"/>
		<g id="XMLID_28381_">
			<polygon id="XMLID_28936_" style="fill:#E0E0E0;" points="60.536,235.854 60.867,236.045 60.867,242.021 60.536,241.83 			"/>
		</g>
		<g id="XMLID_28380_">
			<polygon id="XMLID_28934_" style="fill:#E0E0E0;" points="61.885,236.632 62.456,236.968 62.456,242.945 61.885,242.609 			"/>
		</g>
		<g id="XMLID_28379_">
			<polygon id="XMLID_28932_" style="fill:#E0E0E0;" points="63.234,237.411 63.566,237.602 63.565,243.579 63.234,243.387 			"/>
		</g>
		<g id="XMLID_28378_">
			<polygon id="XMLID_28930_" style="fill:#E0E0E0;" points="64.251,237.987 64.915,238.381 64.914,244.357 64.251,243.964 			"/>
		</g>
		<g id="XMLID_28377_">
			<polygon id="XMLID_28928_" style="fill:#E0E0E0;" points="65.932,238.968 66.264,239.159 66.264,245.135 65.932,244.944 			"/>
		</g>
		<g id="XMLID_28376_">
			<polygon id="XMLID_28926_" style="fill:#E0E0E0;" points="66.904,239.516 67.613,239.938 67.613,245.914 66.904,245.493 			"/>
		</g>
		<g id="XMLID_28375_">
			<polygon id="XMLID_28924_" style="fill:#E0E0E0;" points="68.631,240.525 68.962,240.716 68.962,246.693 68.63,246.501 			"/>
		</g>
		<g id="XMLID_28361_">
			<polygon id="XMLID_28922_" style="fill:#E0E0E0;" points="69.4,240.963 69.566,241.059 69.566,247.035 69.4,246.939 			"/>
		</g>
		<g id="XMLID_28362_">
			<polygon id="XMLID_28920_" style="fill:#E0E0E0;" points="68.015,240.199 68.181,240.295 68.181,246.271 68.015,246.176 			"/>
		</g>
		<g id="XMLID_28363_">
			<polygon id="XMLID_28918_" style="fill:#E0E0E0;" points="65.298,238.607 65.464,238.703 65.463,244.68 65.298,244.584 			"/>
		</g>
		<g id="XMLID_28364_">
			<polygon id="XMLID_28916_" style="fill:#E0E0E0;" points="63.81,237.753 63.975,237.849 63.975,243.826 63.81,243.73 			"/>
		</g>
		<g id="XMLID_28365_">
			<polygon id="XMLID_28914_" style="fill:#E0E0E0;" points="62.741,237.163 62.906,237.259 62.906,243.235 62.741,243.14 			"/>
		</g>
		<g id="XMLID_28366_">
			<polygon id="XMLID_28912_" style="fill:#E0E0E0;" points="61.291,236.283 61.457,236.379 61.457,242.355 61.291,242.26 			"/>
		</g>
		<g id="XMLID_28374_">
			<polygon id="XMLID_28910_" style="fill:#E0E0E0;" points="69.98,241.303 70.311,241.495 70.311,247.471 69.98,247.28 			"/>
		</g>
		<g id="XMLID_28412_">
			<polygon id="XMLID_28906_" style="fill:#F5F5F5;" points="120.41,160.807 91.976,144.39 63.542,160.806 91.976,177.223 			"/>
		</g>
		<g id="XMLID_28411_">
			<polygon id="XMLID_28904_" style="fill:#EBEBEB;" points="91.976,233.508 120.411,217.092 120.411,160.806 91.976,177.223 			"/>
		</g>
		<g id="XMLID_28407_">
			<g id="XMLID_28410_">
				<path id="XMLID_28555_" style="fill:#FFFFFF;" d="M96.672,224.173c-0.131,0-0.254-0.032-0.366-0.097
					c-0.29-0.168-0.457-0.536-0.457-1.011v-2.981c0-0.002,0-0.004,0-0.006v-0.221l0.152,0.027l2.338-1.373v3.333
					c0,0.847-0.506,1.803-1.151,2.176C97.012,224.122,96.836,224.173,96.672,224.173z M96.224,220.305v2.761
					c0,0.337,0.099,0.587,0.27,0.686c0.17,0.099,0.369,0.023,0.507-0.056c0.522-0.302,0.964-1.15,0.964-1.852v-0.245h-0.865
					l-0.171-1.169L96.224,220.305z M97.423,221.224h0.541v-2.058l-1.395,0.819l0.691,0.124L97.423,221.224z"/>
			</g>
			<g id="XMLID_28409_">
				<path id="XMLID_28554_" style="fill:#FFFFFF;" d="M97.094,226.551c-0.104,0-0.188-0.084-0.188-0.188v-2.505
					c0-0.104,0.084-0.188,0.188-0.188c0.104,0,0.188,0.084,0.188,0.188v2.505C97.281,226.467,97.197,226.551,97.094,226.551z"/>
			</g>
			<g id="XMLID_28408_">
				<path id="XMLID_28553_" style="fill:#FFFFFF;" d="M96.005,227.179c-0.064,0-0.128-0.034-0.162-0.094
					c-0.052-0.09-0.021-0.205,0.068-0.256l2.178-1.257c0.088-0.051,0.204-0.021,0.256,0.069c0.052,0.09,0.021,0.205-0.068,0.256
					l-2.178,1.257C96.069,227.171,96.037,227.179,96.005,227.179z"/>
			</g>
		</g>
		<g id="XMLID_28404_">
			<g id="XMLID_28406_">
				<path id="XMLID_28552_" style="fill:#FFFFFF;" d="M103.763,222.865c-0.073,0-0.144-0.018-0.205-0.053
					c-0.143-0.081-0.225-0.246-0.225-0.45v-0.514c0-0.104,0.084-0.188,0.187-0.188c0.104,0,0.188,0.084,0.188,0.188v0.514
					c0,0.077,0.021,0.117,0.035,0.125c0.018,0.009,0.06,0.006,0.124-0.032c0.164-0.097,0.348-0.469,0.348-0.848v-3.331
					c0-0.104,0.084-0.188,0.188-0.188c0.104,0,0.188,0.084,0.188,0.188v3.331c0,0.489-0.229,0.992-0.533,1.171
					C103.958,222.836,103.857,222.865,103.763,222.865z"/>
			</g>
			<g id="XMLID_28405_">
				<path id="XMLID_28549_" style="fill:#FFFFFF;" d="M101.788,219.952v-0.325c0-1.527,1.075-3.391,2.397-4.154
					c0.677-0.39,1.323-0.447,1.817-0.161c0.496,0.286,0.769,0.874,0.769,1.654v0.108L101.788,219.952z M105.309,215.508
					c-0.283,0-0.602,0.098-0.936,0.291c-1.123,0.648-2.054,2.159-2.192,3.494l4.214-2.433c-0.021-0.586-0.226-1.018-0.579-1.222
					C105.666,215.551,105.495,215.508,105.309,215.508z"/>
			</g>
		</g>
		<g id="XMLID_28397_">
			<g id="XMLID_28401_">
				<g id="XMLID_28403_">
					<path id="XMLID_28548_" style="fill:#FFFFFF;" d="M110.495,219.026c-0.104,0-0.188-0.084-0.188-0.188v-6.38
						c0-0.104,0.084-0.188,0.188-0.188s0.188,0.084,0.188,0.188v6.38C110.683,218.942,110.599,219.026,110.495,219.026z"/>
				</g>
				<g id="XMLID_28402_">
					<path id="XMLID_28547_" style="fill:#FFFFFF;" d="M109.947,213.914c-0.025,0-0.05-0.005-0.074-0.016
						c-0.096-0.041-0.139-0.151-0.098-0.247l0.667-1.541l0.744,0.859c0.068,0.078,0.06,0.196-0.018,0.264
						c-0.08,0.067-0.197,0.059-0.265-0.019l-0.353-0.408l-0.431,0.994C110.089,213.871,110.019,213.914,109.947,213.914z"/>
				</g>
			</g>
			<g id="XMLID_28398_">
				<g id="XMLID_28400_">
					<path id="XMLID_28546_" style="fill:#FFFFFF;" d="M112.229,218.037c-0.103,0-0.187-0.084-0.187-0.188v-6.38
						c0-0.104,0.084-0.188,0.187-0.188c0.104,0,0.188,0.084,0.188,0.188v6.38C112.417,217.953,112.333,218.037,112.229,218.037z"/>
				</g>
				<g id="XMLID_28399_">
					<path id="XMLID_28545_" style="fill:#FFFFFF;" d="M111.681,212.925c-0.025,0-0.05-0.005-0.074-0.016
						c-0.096-0.041-0.139-0.151-0.098-0.247l0.667-1.541l0.744,0.859c0.068,0.078,0.06,0.196-0.019,0.264
						c-0.08,0.067-0.197,0.059-0.265-0.019l-0.354-0.408l-0.431,0.994C111.822,212.883,111.753,212.925,111.681,212.925z"/>
				</g>
			</g>
		</g>
		<g id="XMLID_28396_">
			<polygon id="XMLID_28874_" style="fill:#E0E0E0;" points="91.976,233.509 63.542,217.092 63.542,160.806 91.976,177.223 			"/>
		</g>
		<g id="XMLID_28395_">
			<polygon id="XMLID_28872_" style="fill:#F5F5F5;" points="77.034,175.253 79.79,176.844 79.79,170.185 77.034,168.595 			"/>
		</g>
		<g id="XMLID_28394_">
			<polygon id="XMLID_14729_" style="fill:#FFFFFF;" points="79.79,170.186 108.224,153.769 105.467,152.179 77.034,168.595 			"/>
		</g>
		<g id="XMLID_28392_">
			<path id="XMLID_28867_" style="fill:#F5F5F5;" d="M69.327,206.363l8.722,5.036c0.956,0.552,1.732,1.895,1.732,3l0,5.381
				c0,1.105-0.775,1.552-1.732,1l-8.723-5.036c-0.957-0.552-1.732-1.895-1.732-3l0-5.381
				C67.595,206.258,68.371,205.81,69.327,206.363z"/>
		</g>
		<g id="XMLID_28369_">
			<g id="XMLID_28391_">
				<polygon id="XMLID_28865_" style="fill:#E0E0E0;" points="68.651,207.708 68.983,207.899 68.983,213.876 68.651,213.684 				"/>
			</g>
			<g id="XMLID_28390_">
				<polygon id="XMLID_28863_" style="fill:#E0E0E0;" points="70,208.486 70.572,208.822 70.572,214.799 70,214.463 				"/>
			</g>
			<g id="XMLID_28389_">
				<polygon id="XMLID_28861_" style="fill:#E0E0E0;" points="71.35,209.265 71.681,209.456 71.681,215.433 71.35,215.241 				"/>
			</g>
			<g id="XMLID_28388_">
				<polygon id="XMLID_28859_" style="fill:#E0E0E0;" points="72.367,209.841 73.03,210.235 73.03,216.211 72.367,215.818 				"/>
			</g>
			<g id="XMLID_28387_">
				<polygon id="XMLID_28857_" style="fill:#E0E0E0;" points="74.048,210.822 74.379,211.013 74.379,216.99 74.048,216.798 				"/>
			</g>
			<g id="XMLID_28386_">
				<polygon id="XMLID_28855_" style="fill:#E0E0E0;" points="75.019,211.37 75.728,211.792 75.728,217.768 75.019,217.347 				"/>
			</g>
			<g id="XMLID_28385_">
				<polygon id="XMLID_28853_" style="fill:#E0E0E0;" points="76.746,212.379 77.077,212.57 77.077,218.547 76.746,218.355 				"/>
			</g>
			<g id="XMLID_28384_">
				<polygon id="XMLID_28851_" style="fill:#E0E0E0;" points="77.516,212.817 77.681,212.913 77.681,218.889 77.515,218.793 				"/>
			</g>
			<g id="XMLID_28383_">
				<polygon id="XMLID_28849_" style="fill:#E0E0E0;" points="76.131,212.053 76.297,212.149 76.296,218.126 76.131,218.03 				"/>
			</g>
			<g id="XMLID_28382_">
				<polygon id="XMLID_28847_" style="fill:#E0E0E0;" points="73.413,210.462 73.579,210.557 73.579,216.534 73.413,216.438 				"/>
			</g>
			<g id="XMLID_28373_">
				<polygon id="XMLID_28845_" style="fill:#E0E0E0;" points="71.925,209.607 72.091,209.703 72.091,215.68 71.925,215.584 				"/>
			</g>
			<g id="XMLID_28372_">
				<polygon id="XMLID_28843_" style="fill:#E0E0E0;" points="70.856,209.017 71.022,209.113 71.022,215.089 70.856,214.994 				"/>
			</g>
			<g id="XMLID_28371_">
				<polygon id="XMLID_28841_" style="fill:#E0E0E0;" points="69.407,208.137 69.572,208.233 69.572,214.209 69.407,214.114 				"/>
			</g>
			<g id="XMLID_28370_">
				<polygon id="XMLID_28839_" style="fill:#E0E0E0;" points="78.095,213.157 78.426,213.349 78.426,219.325 78.095,219.134 				"/>
			</g>
		</g>
	</g>
</g>
<g id="Device">
	<g>
		<g>
			<path id="XMLID_28807_" style="fill:#455A64;" d="M63.81,315.747l109.136,63.005c2.391,1.381,6.269,1.381,8.66,0l239.129-138.051
				c2.392-1.38,2.392-3.619,0-5l-109.137-63.006c-2.392-1.381-6.269-1.381-8.66,0L63.81,310.747
				C61.419,312.128,61.419,314.366,63.81,315.747z"/>
		</g>
		<path id="XMLID_28805_" style="fill:#263238;" d="M122.795,345.016c3.322,1.918,8.707,1.918,12.029,0
			c3.322-1.918,3.322-5.026,0-6.944c-3.322-1.918-8.707-1.918-12.029,0S119.474,343.099,122.795,345.016z"/>
		<path id="XMLID_28803_" style="fill:#37474F;" d="M174.946,378.752L65.81,315.747c-2.138-1.234-2.359-3.153-0.673-4.533
			c-2.069,1.57-3.657,4.538-3.657,7.033v4.071c0,2.762,1.939,6.119,4.33,7.5l109.136,63.005c1.195,0.69,2.763,1.036,4.33,1.036
			v-14.071C177.709,379.788,176.142,379.443,174.946,378.752z"/>
		<g>
			<path id="XMLID_28801_" style="fill:#263238;" d="M420.735,254.772c2.392-1.38,4.33-4.738,4.33-7.499v-4.072
				c0-2.496-1.59-5.466-3.661-7.035c1.691,1.38,1.473,3.301-0.668,4.536L181.606,378.752c-1.196,0.69-2.763,1.036-4.33,1.036v14.071
				c1.567,0,3.134-0.346,4.33-1.036L420.735,254.772z"/>
		</g>
		<path id="XMLID_14728_" style="fill:#FFFFFF;" d="M190.93,365.696l-104.463-60.34c-1.435-0.829-1.435-2.172,0-3l201.924-116.605
			c1.436-0.829,3.762-0.829,5.196-0.001l104.5,60.331c1.435,0.829,1.435,2.172,0,3L196.126,365.696
			C194.691,366.525,192.364,366.525,190.93,365.696z"/>
		<polygon id="XMLID_28797_" style="fill:#27DEBF;" points="148.845,332.008 161.031,324.972 156.969,322.627 144.783,329.662 		"/>
		<polygon id="XMLID_28785_" style="fill:#27DEBF;" points="295.08,247.581 307.266,240.544 303.204,238.2 291.018,245.235 		"/>
		<polygon id="XMLID_28783_" style="fill:#27DEBF;" points="319.452,233.509 331.638,226.473 327.577,224.128 315.39,231.163 		"/>
		<g>
			<path id="XMLID_28778_" style="fill:#263238;" d="M358.57,208.856c0.841,0.486,2.205,0.485,3.046,0
				c0.842-0.485,0.842-1.273,0-1.759c-0.841-0.485-2.205-0.485-3.046,0C357.728,207.583,357.728,208.371,358.57,208.856z"/>
			<path id="XMLID_28776_" style="fill:#263238;" d="M363.438,222.671c1.683,0.972,4.41,0.972,6.093,0
				c1.683-0.972,1.683-2.547,0-3.518c-1.683-0.972-4.41-0.972-6.093,0C361.755,220.124,361.755,221.699,363.438,222.671z"/>
			<path id="XMLID_28774_" style="fill:#263238;" d="M359.142,216.549c1.122-0.648,1.063-1.731-0.134-2.422l-20.042-11.571
				c-1.195-0.69-3.074-0.726-4.196-0.078c-1.121,0.648-1.062,1.732,0.134,2.423l20.043,11.571
				C356.142,217.162,358.021,217.197,359.142,216.549z"/>
		</g>
	</g>
</g>
<g id="Locator">
	<g>
		<path id="XMLID_28646_" style="fill:#27DEBF;" d="M325.041,169.625l0.676-0.39c-0.437,1.529-0.675,3.279-0.675,5.236v2.441
			c0,8.754,10.513,31.135,14.374,39.06c0.404,0.828-4.909,6.477-4.909,6.477l6.31-3.643c0,0,15.775-12.956,15.775-23.679v-2.441
			c0-10.724-7.062-23.495-15.774-28.524c-4.392-2.536-8.364-2.617-11.224-0.703l-0.001-0.002l-5.993,3.442L325.041,169.625z
			 M332.929,177.822c0-5.03,3.531-7.069,7.887-4.554c-0.353,3.228,5.542,13.292,7.887,13.661c0,5.03-3.531,7.069-7.887,4.554
			C336.46,188.969,332.929,182.852,332.929,177.822z"/>
		<path id="XMLID_28323_" style="fill:#27DEBF;" d="M318.511,180.816c0.176,10.722,16.461,41.629,16.461,41.629
			s15.56-13.213,15.383-23.936l-0.04-2.44c-0.176-10.722-7.448-23.375-16.241-28.261c-8.793-4.886-15.779-0.155-15.603,10.568
			L318.511,180.816z M326.412,181.597c-0.083-5.029,3.415-7.126,7.811-4.683c4.397,2.443,8.028,8.501,8.111,13.53
			c0.083,5.029-3.415,7.126-7.811,4.683C330.126,192.683,326.495,186.626,326.412,181.597z"/>
		<path id="XMLID_1_" style="opacity:0.1;" d="M318.511,180.816c0.176,10.722,16.461,41.629,16.461,41.629
			s15.56-13.213,15.383-23.936l-0.04-2.44c-0.176-10.722-7.448-23.375-16.241-28.261c-8.793-4.886-15.779-0.155-15.603,10.568
			L318.511,180.816z M326.412,181.597c-0.083-5.029,3.415-7.126,7.811-4.683c4.397,2.443,8.028,8.501,8.111,13.53
			c0.083,5.029-3.415,7.126-7.811,4.683C330.126,192.683,326.495,186.626,326.412,181.597z"/>
	</g>
</g>
<g id="Shadow">
	<path id="XMLID_28780_" style="fill:#F0F0F0;" d="M166.009,323.788c10.107,5.822,33.809,1.587,52.941-9.458l52.538-30.332
		c19.132-11.046,26.429-24.709,16.299-30.517c-10.13-5.809-33.852-1.563-52.983,9.482l-52.453,30.284
		C163.219,304.292,155.903,317.966,166.009,323.788z"/>
</g>
<g id="Character">
	<g>
		<polygon id="XMLID_28795_" style="fill:#27DEBF;" points="173.218,317.937 185.404,310.901 181.342,308.556 169.156,315.591 		"/>
		<polygon id="XMLID_28793_" style="fill:#27DEBF;" points="197.59,303.866 209.776,296.829 205.714,294.485 193.528,301.52 		"/>
		<path id="XMLID_28716_" style="fill:#263238;" d="M192.585,301.025c0,5.88-4.12,13.03-9.21,15.96c-2.71,1.57-5.15,1.62-6.83,0.44
			c0-0.01-0.01-0.01-0.01-0.01c-1.23-0.86-2.06-2.37-2.31-4.43c0.34-0.15,0.68-0.33,1.03-0.53c5.09-2.93,9.21-10.08,9.21-15.96
			c0-0.46-0.02-0.9-0.08-1.31c1.92-0.87,3.66-0.95,5.04-0.36C191.365,295.655,192.585,297.825,192.585,301.025z"/>
		<path id="XMLID_28718_" style="fill:#37474F;" d="M193.415,288.925c-0.06-0.03-0.11-0.06-0.17-0.1c-2.56-1.36-6.04-1.11-9.87,1.11
			c-7.85,4.53-14.22,15.55-14.22,24.62c0,4.56,1.61,7.75,4.21,9.23c2.57,1.46,6.11,1.23,10.01-1.02
			c7.85-4.53,14.21-15.56,14.21-24.63C197.585,293.595,195.995,290.405,193.415,288.925z M183.375,316.985
			c-2.72,1.57-5.16,1.62-6.84,0.43c-1.48-1.03-2.38-3.01-2.38-5.75c0-5.87,4.13-13.02,9.22-15.96c2.32-1.34,4.43-1.57,6.05-0.88
			c1.94,0.83,3.16,3,3.16,6.2C192.585,306.905,188.465,314.055,183.375,316.985z"/>
		<path id="XMLID_28711_" style="fill:#27DEBF;" d="M189.881,295.05c-0.039-0.019-0.071-0.039-0.11-0.065
			c-1.659-0.882-3.915-0.72-6.398,0.72c-5.089,2.937-9.218,10.08-9.218,15.96c0,2.956,1.044,5.024,2.729,5.983
			c1.666,0.947,3.961,0.797,6.489-0.661c5.089-2.937,9.212-10.087,9.212-15.967C192.585,298.077,191.554,296.009,189.881,295.05z
			 M183.374,314.897c-2.187,1.262-4.148,1.302-5.499,0.346c-1.19-0.828-1.913-2.42-1.913-4.623c0-4.719,3.32-10.467,7.412-12.831
			c1.865-1.077,3.561-1.262,4.864-0.707c1.56,0.667,2.54,2.412,2.54,4.984C190.778,306.793,187.466,312.541,183.374,314.897z"/>
		<polygon id="XMLID_28791_" style="fill:#27DEBF;" points="221.962,289.794 234.148,282.758 230.087,280.414 217.9,287.448 		"/>
		<polygon id="XMLID_28789_" style="fill:#27DEBF;" points="246.335,275.723 258.521,268.687 254.459,266.342 242.273,273.377 		"/>
		<polygon id="XMLID_28787_" style="fill:#27DEBF;" points="270.707,261.652 282.893,254.616 278.832,252.271 266.645,259.306 		"/>
		<path id="XMLID_28770_" style="fill:#27DEBF;" d="M210.063,196.221c0.8-0.687,1.607-0.403,1.801,0.633
			c0.194,1.036-0.297,2.433-1.097,3.119c-0.8,0.686-1.607,0.403-1.801-0.634C208.772,198.305,209.263,196.908,210.063,196.221z"/>
		<polygon id="XMLID_28768_" style="fill:#27DEBF;" points="219.443,200.641 211.288,195.934 209.504,200.24 217.677,204.958 		"/>
		<path id="XMLID_28765_" style="fill:#27DEBF;" d="M218.187,200.912c0.8-0.686,1.607-0.403,1.801,0.634
			c0.194,1.036-0.297,2.433-1.097,3.119c-0.8,0.686-1.607,0.403-1.801-0.633C216.896,202.995,217.387,201.598,218.187,200.912z"/>
		<path id="XMLID_28762_" style="fill:#455A64;" d="M280.83,240.35c0.01,0.2,0.03,0.38,0.03,0.58c0,0.4-0.01,0.81-0.04,1.22
			c-1.62-0.69-3.73-0.46-6.05,0.88c-5.09,2.94-9.22,10.09-9.22,15.96c0,2.74,0.9,4.72,2.38,5.75c-0.42,0.3-0.85,0.57-1.29,0.82
			c-0.16,0.09-0.31,0.16-0.47,0.24l-1.41,5.31l-8.16-4.55c-2.58-1.49-4.17-4.67-4.17-9.21c0-9.07,6.36-20.09,14.21-24.63
			c3.88-2.24,7.39-2.47,9.96-1.04v-0.01l8.04,4.48c0.06,0.04,0.11,0.07,0.17,0.1L280.83,240.35z"/>
		<path id="XMLID_28757_" style="fill:#37474F;" d="M284.81,236.249c-0.06-0.03-0.11-0.06-0.17-0.1c-2.56-1.36-6.04-1.11-9.87,1.11
			c-7.85,4.53-14.22,15.55-14.22,24.62c0,4.56,1.61,7.75,4.21,9.23c2.57,1.46,6.11,1.23,10.01-1.02
			c7.85-4.53,14.21-15.56,14.21-24.63C288.98,240.919,287.39,237.73,284.81,236.249z M274.77,264.31c-2.72,1.57-5.16,1.62-6.84,0.43
			c-1.48-1.03-2.38-3.01-2.38-5.75c0-5.87,4.13-13.02,9.22-15.96c2.32-1.34,4.43-1.57,6.05-0.88c1.94,0.83,3.16,3,3.16,6.2
			C283.98,254.23,279.86,261.379,274.77,264.31z"/>
		<path id="XMLID_28755_" style="fill:#263238;" d="M283.98,248.35c0,5.88-4.12,13.03-9.21,15.96c-2.71,1.57-5.15,1.62-6.83,0.44
			c0-0.01-0.01-0.01-0.01-0.01c-1.23-0.86-2.06-2.37-2.31-4.43c0.34-0.15,0.68-0.33,1.03-0.53c5.09-2.93,9.21-10.08,9.21-15.96
			c0-0.46-0.02-0.9-0.08-1.31c1.92-0.87,3.66-0.95,5.04-0.36C282.76,242.98,283.98,245.15,283.98,248.35z"/>
		<path id="XMLID_28750_" style="fill:#27DEBF;" d="M281.277,242.378c-0.039-0.02-0.071-0.039-0.11-0.065
			c-1.659-0.882-3.915-0.72-6.398,0.719c-5.089,2.937-9.218,10.081-9.218,15.96c0,2.956,1.044,5.024,2.729,5.983
			c1.666,0.946,3.961,0.797,6.489-0.661c5.089-2.937,9.212-10.087,9.212-15.967C283.98,245.405,282.949,243.337,281.277,242.378z
			 M274.769,262.224c-2.187,1.262-4.148,1.302-5.499,0.346c-1.19-0.828-1.913-2.42-1.913-4.623c0-4.719,3.32-10.467,7.412-12.831
			c1.865-1.077,3.561-1.262,4.864-0.707c1.56,0.667,2.54,2.412,2.54,4.984C282.173,254.121,278.861,259.869,274.769,262.224z"/>
		<path id="XMLID_28747_" style="fill:#27DEBF;" d="M266.643,251.338c0,0,20.329-11.737,23.004-13.281
			c2.675-1.545-6.051-10.601-12.45-11.203c-6.399-0.602-10.554,1.032-10.554,1.032s4.908,6.293,4.063,9.862
			C269.86,241.316,266.643,251.338,266.643,251.338z"/>
		<path id="XMLID_28745_" style="fill:#27DEBF;" d="M234.147,213.814c0,0,33.338,16.814,34.779,17.822
			c1.441,1.009,0.045,12.745-2.283,19.702c-2.328,6.956-5.814,17.643-7.221,20.693c-1.406,3.05-3.253,4.116-6.633,6.067
			c-3.38,1.951-24.016,13.874-24.016,13.874l-32.473,3.925l-12.897-7.036l3.353-21.107c0,0,34.529-18.374,39.265-21.107
			C230.757,243.914,244.739,231.151,234.147,213.814z"/>
		<path id="XMLID_5_" style="opacity:0.2;" d="M234.147,213.814c0,0,33.338,16.814,34.779,17.822
			c1.441,1.009,0.045,12.745-2.283,19.702c-2.328,6.956-5.814,17.643-7.221,20.693c-1.406,3.05-3.253,4.116-6.633,6.067
			c-3.38,1.951-24.016,13.874-24.016,13.874l-32.473,3.925l-12.897-7.036l3.353-21.107c0,0,34.529-18.374,39.265-21.107
			C230.757,243.914,244.739,231.151,234.147,213.814z"/>
		<path id="XMLID_28743_" style="fill:#27DEBF;" d="M269.566,247.334c2.98-8.065,5.244-14.747,4.859-19.251
			c-0.458-5.349-2.451-9.726-11.278-11.924c-8.827-2.198-21.182-2.168-21.182-2.168l-3.756,2.169c0,0,25.361,14.7,28.239,16.304
			c1.76,0.98,3.639,5.404,0.195,18.874c0,0,0.264,0.153,0.59,0.341C267.559,251.867,268.609,249.924,269.566,247.334z"/>
		<path id="XMLID_16_" style="opacity:0.3;fill:#FFFFFF;" d="M269.566,247.334c2.98-8.065,5.244-14.747,4.859-19.251
			c-0.458-5.349-2.451-9.726-11.278-11.924c-8.827-2.198-21.182-2.168-21.182-2.168l-3.756,2.169c0,0,25.361,14.7,28.239,16.304
			c1.76,0.98,3.639,5.404,0.195,18.874c0,0,0.264,0.153,0.59,0.341C267.559,251.867,268.609,249.924,269.566,247.334z"/>
		<path id="XMLID_28741_" style="fill:#27DEBF;" d="M250.358,223.195l4.099-2.345c0,0-0.24-14.209-6.213-17.658
			c-5.973-3.449-26.284-1.104-26.284-1.104l-4.062,2.345L250.358,223.195z"/>
		<path id="XMLID_28739_" style="fill:#F0F0F0;" d="M237.061,206.44c-1.948,1.125-1.948,2.948,0,4.073
			c1.948,1.125,5.107,1.125,7.055,0c1.948-1.125,1.948-2.949,0-4.073C242.167,205.316,239.009,205.316,237.061,206.44z"/>
		<path id="XMLID_28737_" style="fill:#F0F0F0;" d="M243.304,213.231c-1.378,0.795-1.378,2.084,0,2.88
			c1.377,0.795,3.611,0.795,4.988,0c1.377-0.795,1.377-2.084,0-2.88C246.914,212.436,244.681,212.436,243.304,213.231z"/>
		<path id="XMLID_28735_" style="fill:#F0F0F0;" d="M227.591,204.625c-1.378,0.795-1.378,2.085,0,2.88
			c1.377,0.795,3.611,0.795,4.988,0c1.377-0.795,1.377-2.085,0-2.88C231.201,203.83,228.968,203.83,227.591,204.625z"/>
		<path id="XMLID_28732_" style="fill:#27DEBF;" d="M250.946,219.068c0.8-0.686,1.607-0.403,1.801,0.633
			c0.194,1.036-0.297,2.433-1.097,3.12c-0.8,0.686-1.607,0.403-1.801-0.633C249.655,221.151,250.146,219.754,250.946,219.068z"/>
		<polygon id="XMLID_28730_" style="fill:#27DEBF;" points="260.326,223.487 252.171,218.78 250.387,223.087 258.56,227.804 		"/>
		<path id="XMLID_28727_" style="fill:#27DEBF;" d="M259.07,223.758c0.8-0.686,1.607-0.403,1.801,0.634
			c0.194,1.036-0.297,2.433-1.097,3.119c-0.8,0.687-1.607,0.403-1.801-0.633C257.779,225.841,258.27,224.445,259.07,223.758z"/>
		<path id="XMLID_8_" d="M259.07,223.758c0.8-0.686,1.607-0.403,1.801,0.634c0.194,1.036-0.297,2.433-1.097,3.119
			c-0.8,0.687-1.607,0.403-1.801-0.633C257.779,225.841,258.27,224.445,259.07,223.758z"/>
		<path id="XMLID_28723_" style="fill:#455A64;" d="M189.435,293.025c0.01,0.2,0.03,0.38,0.03,0.58c0,0.4-0.01,0.81-0.04,1.22
			c-1.62-0.69-3.73-0.46-6.05,0.88c-5.09,2.94-9.22,10.09-9.22,15.96c0,2.74,0.9,4.72,2.38,5.75c-0.42,0.3-0.85,0.57-1.29,0.82
			c-0.16,0.09-0.31,0.16-0.47,0.24l-1.41,5.31l-8.16-4.55c-2.58-1.49-4.17-4.67-4.17-9.21c0-9.07,6.36-20.09,14.21-24.63
			c3.88-2.24,7.39-2.47,9.96-1.04v-0.01l8.04,4.48c0.06,0.04,0.11,0.07,0.17,0.1L189.435,293.025z"/>
		<polygon id="XMLID_28708_" style="fill:#27DEBF;" points="165.092,277.135 158.999,298.242 171.185,305.278 177.501,284.299 		"/>
		<polygon id="XMLID_15_" style="opacity:0.2;" points="165.092,277.135 158.999,298.242 171.185,305.278 177.501,284.299 		"/>
		<path id="XMLID_28706_" style="fill:#27DEBF;" d="M165.092,277.135c0,0,6.913,5.835,12.409,7.164
			c7.217,1.746,18.695,1.936,22.766,2.217c6.227,0.429,10.922,0.426,13.128-0.366c2.85-1.024,10.51-5.446,12.628-6.669
			c4.062-2.345,5.789-11.552-5.404-14.072c-11.194-2.52-23.03-2.345-23.03-2.345L165.092,277.135z"/>
		<path id="XMLID_28704_" style="fill:#37474F;" d="M233.966,274.427c-0.318,0.421-0.375,1.394-0.697,2.71
			c-0.322,1.315-0.43,2.335-0.215,2.979c0.215,0.644,1.63,2.093,3.365,2.63c1.735,0.537,3.868,0.086,5.934-1.148
			c2.065-1.234,3.624-2.736,6.566-3.573c2.942-0.837,4.413-1.517,5.807-2.635c1.631-1.31,3.809-4.929,0.69-5.766
			c-3.146-0.844-9.908,2.12-16.08,2.389L233.966,274.427z"/>
		<path id="XMLID_28702_" style="fill:#FFA8A7;" d="M233.966,270.569v4.623c0,0,0.427,1.598,2.457,1.945
			c0.508,0.087,1.012,0.009,1.483-0.158c1.538-0.543,2.541-2.033,2.648-3.66l0.18-2.751H233.966z"/>
		<path id="XMLID_28700_" style="fill:#37474F;" d="M242.796,241.99c0.033,5.752-1.615,30.605-1.615,30.605s-2.352,2.976-7.462,0
			l-1.734-27.761L242.796,241.99z"/>
		<path id="XMLID_28697_" style="fill:#27DEBF;" d="M216.001,266.504l15.98-9.226c1.196-0.69,2.165-2.3,2.165-3.595
			c0-1.295-0.969-2.905-2.165-3.595l-11.918-6.881c-1.196-0.69-3.134-0.69-4.33,0l-15.984,9.228c-1.196,0.69-2.164,2.3-2.163,3.594
			c0.001,1.295,0.971,2.904,2.167,3.594l11.918,6.881C212.867,267.195,214.806,267.195,216.001,266.504z"/>
		<path id="XMLID_10_" style="fill:#FFFFFF;" d="M216.001,266.504l15.98-9.226c1.196-0.69,2.165-2.3,2.165-3.595
			c0-1.295-0.969-2.905-2.165-3.595l-11.918-6.881c-1.196-0.69-3.134-0.69-4.33,0l-15.984,9.228c-1.196,0.69-2.164,2.3-2.163,3.594
			c0.001,1.295,0.971,2.904,2.167,3.594l11.918,6.881C212.867,267.195,214.806,267.195,216.001,266.504z"/>
		<path id="XMLID_28695_" style="fill:#27DEBF;" d="M199.75,254.934l11.921,6.88c1.196,0.69,3.135,0.69,4.33,0l15.98-9.226
			c1.196-0.69,1.196-1.81,0-2.5l-11.918-6.881c-1.196-0.69-3.134-0.69-4.33,0l-15.984,9.228
			C198.554,253.125,198.554,254.244,199.75,254.934z"/>
		<g id="XMLID_28244_">
			<g id="XMLID_28238_">
				<polygon id="XMLID_28693_" style="fill:#FFA8A7;" points="209.497,193.733 207.471,202.099 198.752,202.628 200.635,191.033 
									"/>
			</g>
			<g id="XMLID_14734_">
				<g id="XMLID_14738_">
					<path id="XMLID_28691_" style="fill:#F28F8F;" d="M217.951,187.425c0,0,0.948,3.548,0.589,3.743
						c-0.359,0.195-1.901,0.008-1.901,0.008L217.951,187.425z"/>
				</g>
				<g id="XMLID_14737_">
					<path id="XMLID_28689_" style="fill:#FFA8A7;" d="M216.327,176.131c1.407,1.651,2.682,4.358,1.695,10.982
						c-1.082,7.26-2.424,8.096-3.506,8.801c-1.401,0.913-7.049,0.429-8.638-0.732c-1.91-1.395-4.86-5.801-5.56-10.15
						c-0.822-5.117,0.894-10.787,4.652-11.748C210.259,171.931,215.136,174.734,216.327,176.131z"/>
				</g>
			</g>
		</g>
		<g>
			<g id="XMLID_14736_">
				<path id="XMLID_28685_" style="fill:#455A64;" d="M199.752,193.379c1.344,1.4,4.117,1.785,5.861,2.097
					c1.745,0.313,7.086,0.67,8.668-3.136c1.582-3.806,0.497-6.551,2.441-7.471c1.945-0.92,3.879-1.523,4.387-2.037
					c0.507-0.515,0.522-6.748-4.688-9.956c-5.21-3.208-13.19-4.035-18.439,2.597C193.96,180.554,195.63,189.085,199.752,193.379z"/>
			</g>
			<g id="XMLID_14735_">
				<path id="XMLID_28683_" style="fill:#37474F;" d="M204.983,195.535c1.346,0.113,5.619-0.56,6.904-2.316
					c1.285-1.756,1.808-4.905,1.96-6.561c0.152-1.657,1.036-2.32,2.317-2.729c1.281-0.409,4.137-1.808,4.137-1.808l0.017-0.778
					c0,0,2.155-0.122,2.759-0.014c0.604,0.108,0.275,0.994-1.246,1.777c-1.521,0.783-5.687,2.259-6.333,2.767
					c-0.645,0.509-0.938,2.663-1.447,4.95C213.542,193.11,212.04,196.542,204.983,195.535z"/>
			</g>
		</g>
		<path id="XMLID_28680_" style="fill:#F28F8F;" d="M216.988,204.959l4.972-2.871c0.476-1.45-0.287-2.177-1.655-2.087
			c-1.368,0.09-0.938-1.23-1.766-1.605c-1.092-0.495-1.709-0.216-2.194-0.444c-0.617-0.289-0.701-0.816-1.343-0.878
			c-2.858-0.275-4.811,3.805-4.811,3.805L216.988,204.959z"/>
		<path id="XMLID_28678_" style="fill:#37474F;" d="M183.055,241.718c0,0,22.09-10.952,25.949-12.742
			c3.859-1.79,9.89-4.337,13.098-4.335c2.332,0.001,4.67,2.293,4.787,4.9c0.117,2.607-0.331,5.772-0.331,5.772
			s-9.31,3.174-18.526,4.73C198.814,241.598,183.055,241.718,183.055,241.718z"/>
		<path id="XMLID_28676_" style="fill:#455A64;" d="M185.46,235.394c0.008,4.534-0.426,9.252,1.464,12.575
			c1.827,3.212,12.121,11.014,21.767,9.391c6.301-1.061,24.999-9.675,24.999-9.675s9.064-3.325,9.105-5.695
			c0.06-3.494-0.179-8.408-8.089-8.198c-7.205,0.191-28.474,4.628-28.474,4.628L185.46,235.394z"/>
		<path id="XMLID_28674_" style="fill:#455A64;" d="M191.635,199.423c3.417-3.576,5.727-3.871,7.365-3.438
			c5.71,1.511,9.735,3.894,10.89,4.364l0,0c0,0-1.319,12.781,4.926,16.465v19.911c0,0-0.186,2.164-2.91,4.312
			c-2.401,1.893-7.825,3.803-14.311,3.265c-7.698-0.638-12.136-8.907-12.136-8.907s-0.201-16.29,0.892-22.76
			C187.628,205.083,190.452,200.66,191.635,199.423z"/>
		<path id="XMLID_28672_" style="fill:#37474F;" d="M214.816,217.777c0,0-3.778-2.968-4.926-6.897c0,0,0.451,6.119,4.926,9.224
			V217.777z"/>
		<path id="XMLID_28670_" style="fill:#FFA8A7;" d="M249.807,227.178c1.475,0.196,3.835-0.58,4.995-1.543
			c0,0,1.742-3.384,3.877-3.098c0,0,0.382-1.432-0.503-1.91c-0.885-0.478-1.258-0.341-1.613-0.832
			c-0.356-0.491-0.404-1.437-1.966-1.437c-0.661,0-0.564-0.472-2.166-0.661c-1.602-0.188-3.185,3.504-4.353,3.504L249.807,227.178z"
			/>
		<path id="XMLID_28668_" style="fill:#455A64;" d="M209.89,200.349c5.489,0.848,7.478,2.477,9.478,4.333
			c2.087,1.937,14.243,14.132,14.243,14.132l14.816,2.13c0,0,1.042,0.702,1.641,2.439c0.599,1.737,0.06,3.633-0.509,4.09
			c0,0-14.697,0.873-17.587,0.331c-2.889-0.542-17.204-10.058-17.204-10.058s-4.062-2.587-4.996-8.622
			C208.84,203.088,209.89,200.349,209.89,200.349z"/>
		<g id="XMLID_14649_">
			<path id="XMLID_28664_" style="fill:#27DEBF;" d="M196.715,253.175l-22.74,27.72c-0.25,0.03-0.5,0.05-0.76,0.05
				c-0.94,0-1.87-0.21-2.59-0.61c-0.01-0.01-19.18-11.08-19.18-11.08s-0.582-0.336-1.3-0.75c-0.718-0.414-1.3-2.093-1.3-3.75v-4.67
				c0-9.77,5.21-18.79,13.66-23.67l22.9-13.22l24.37,14.07L196.715,253.175z"/>
		</g>
		<g id="XMLID_11_" style="opacity:0.1;">
			<path id="XMLID_12_" d="M196.715,253.175l-22.74,27.72c-0.25,0.03-0.5,0.05-0.76,0.05c-0.94,0-1.87-0.21-2.59-0.61
				c-0.01-0.01-19.18-11.08-19.18-11.08s-0.582-0.336-1.3-0.75c-0.718-0.414-1.3-2.093-1.3-3.75v-4.67
				c0-9.77,5.21-18.79,13.66-23.67l22.9-13.22l24.37,14.07L196.715,253.175z"/>
		</g>
		<g id="XMLID_14595_">
			<path id="XMLID_28662_" style="fill:#27DEBF;" d="M188.884,262.729l20.89-25.462l-24.373-14.071l-22.892,13.217
				c-3.011,1.738-5.601,4.009-7.7,6.644L188.884,262.729z"/>
		</g>
		<g>
			<g id="XMLID_14651_">
				<path id="XMLID_28660_" style="fill:#27DEBF;" d="M209.775,257.715c0,1.657-0.582,3.336-1.3,3.75l-1.3,0.75l-31.36,18.11
					c-0.54,0.3-1.17,0.49-1.84,0.57c-0.25,0.03-0.5,0.05-0.76,0.05v-6.79c0-9.77,5.21-18.79,13.67-23.67l2.59-1.49l20.3-11.73
					V257.715z"/>
			</g>
			<g id="XMLID_13_" style="opacity:0.2;">
				<path id="XMLID_14_" d="M209.775,257.715c0,1.657-0.582,3.336-1.3,3.75l-1.3,0.75l-31.36,18.11c-0.54,0.3-1.17,0.49-1.84,0.57
					c-0.25,0.03-0.5,0.05-0.76,0.05v-6.79c0-9.77,5.21-18.79,13.67-23.67l2.59-1.49l20.3-11.73V257.715z"/>
			</g>
		</g>
		<polygon id="XMLID_28657_" style="fill:#E0E0E0;" points="216.5,292.015 228.774,291.972 246.333,281.826 246.333,281.826 
			229.127,294.266 216.179,294.445 		"/>
		<path id="XMLID_28655_" style="fill:#E0E0E0;" d="M186.71,309.468c0,0,22.12-8.34,23.979-9.32c2.401-1.266,6.26-4.566,6.26-4.566
			c0.783-0.712,0.751-2.79-0.327-3.57c0,0-9.015-0.41-11.313,0.294c-1.291,0.395-22.104,7.072-22.104,7.072L186.71,309.468z"/>
		<path id="XMLID_28653_" style="fill:#455A64;" d="M185.719,300.147c-1.829-1.569-3.672-0.921-4.117,1.448
			c-0.444,2.369,0.679,5.561,2.508,7.13c1.829,1.569,3.672,0.921,4.117-1.448C188.671,304.908,187.548,301.716,185.719,300.147z"/>
	</g>
</g>
</svg>
